<svg width="58" height="75" viewBox="0 0 58 75" fill="none" xmlns="http://www.w3.org/2000/svg">
<g opacity="0.8">
<g opacity="0.8">
<g clip-path="url(#clip0_112_4119)">
<circle cx="29.3999" cy="25" r="24" stroke="#FBFBF7" stroke-width="2"/>
<path d="M35.8071 34.7505C35.8071 34.9497 35.6457 35.1111 35.4466 35.1111L23.3529 35.1111C23.1537 35.1111 22.9923 34.9497 22.9923 34.7505L22.9923 32.4074C22.9923 28.8687 25.861 26 29.3997 26C32.9384 26 35.8071 28.8687 35.8071 32.4074L35.8071 34.7505Z" fill="#FBFBF7" stroke="#FBFBF7" stroke-width="2" stroke-linejoin="round"/>
<circle cx="18.289" cy="19.4445" r="2.77778" fill="#FBFBF7"/>
<ellipse cx="40.5112" cy="19.4445" rx="2.77778" ry="2.77778" fill="#FBFBF7"/>
</g>
</g>
<path d="M4.8501 70.0518L7.33154 62.0469H9.4165L5.90283 72H4.51514L4.8501 70.0518ZM2.56006 62.0469L5.02783 70.0518L5.3833 72H3.98193L0.481934 62.0469H2.56006ZM13.4667 72.1367C12.9061 72.1367 12.4025 72.0456 11.9559 71.8633C11.5093 71.681 11.1288 71.4281 10.8143 71.1045C10.5044 70.7764 10.2652 70.3958 10.0965 69.9629C9.93248 69.5254 9.85045 69.056 9.85045 68.5547V68.2812C9.85045 67.7116 9.93248 67.1943 10.0965 66.7295C10.2606 66.2601 10.493 65.8568 10.7938 65.5195C11.0946 65.1823 11.4546 64.9225 11.8739 64.7402C12.2932 64.5579 12.7557 64.4668 13.2616 64.4668C13.7857 64.4668 14.2482 64.5557 14.6493 64.7334C15.0503 64.9066 15.3853 65.1527 15.6542 65.4717C15.923 65.7907 16.1258 66.1735 16.2626 66.6201C16.3993 67.0622 16.4676 67.5521 16.4676 68.0898V68.8486H10.6708V67.6045H14.6903V67.4678C14.6812 67.1807 14.6265 66.9186 14.5262 66.6816C14.426 66.4401 14.271 66.2487 14.0614 66.1074C13.8518 65.9616 13.5806 65.8887 13.2479 65.8887C12.979 65.8887 12.7443 65.9479 12.5438 66.0664C12.3478 66.1803 12.1838 66.3444 12.0516 66.5586C11.924 66.7682 11.8283 67.0189 11.7645 67.3105C11.7007 67.6022 11.6688 67.9258 11.6688 68.2812V68.5547C11.6688 68.8646 11.7098 69.1517 11.7919 69.416C11.8784 69.6803 12.0038 69.9105 12.1678 70.1064C12.3365 70.2979 12.537 70.4482 12.7694 70.5576C13.0064 70.6624 13.2753 70.7148 13.576 70.7148C13.9543 70.7148 14.2961 70.6419 14.6014 70.4961C14.9113 70.3457 15.1802 70.1247 15.4081 69.833L16.3172 70.7764C16.1623 71.0042 15.9527 71.223 15.6883 71.4326C15.4286 71.6423 15.1141 71.8132 14.745 71.9453C14.3758 72.0729 13.9497 72.1367 13.4667 72.1367ZM19.6223 66.1143V72H17.8176V64.6035H19.5266L19.6223 66.1143ZM21.8713 64.5557L21.844 66.2373C21.7437 66.2191 21.6298 66.2054 21.5022 66.1963C21.3791 66.1872 21.2629 66.1826 21.1535 66.1826C20.8755 66.1826 20.6317 66.2214 20.4221 66.2988C20.2125 66.3717 20.037 66.4788 19.8957 66.6201C19.759 66.7614 19.6542 66.9346 19.5813 67.1396C19.5084 67.3402 19.4673 67.568 19.4582 67.8232L19.0686 67.7754C19.0686 67.306 19.1164 66.8708 19.2121 66.4697C19.3078 66.0687 19.4468 65.7178 19.6291 65.417C19.8114 65.1162 20.0393 64.8838 20.3127 64.7197C20.5907 64.5511 20.9097 64.4668 21.2697 64.4668C21.37 64.4668 21.4771 64.4759 21.591 64.4941C21.7095 64.5078 21.8029 64.5283 21.8713 64.5557ZM25.2926 71.1797L27.275 64.6035H29.2096L26.2428 73.1211C26.1744 73.3034 26.0855 73.5016 25.9762 73.7158C25.8713 73.93 25.7301 74.1328 25.5523 74.3242C25.3746 74.5202 25.1513 74.6797 24.8824 74.8027C24.6181 74.9258 24.2968 74.9873 23.9185 74.9873C23.7545 74.9873 23.6086 74.9759 23.481 74.9531C23.3534 74.9303 23.219 74.9007 23.0777 74.8643V73.5107C23.1233 73.5153 23.1757 73.5176 23.2349 73.5176C23.2987 73.5221 23.3534 73.5244 23.399 73.5244C23.6633 73.5244 23.8821 73.4925 24.0553 73.4287C24.2284 73.3695 24.3674 73.2715 24.4722 73.1348C24.5816 73.0026 24.6728 72.8294 24.7457 72.6152L25.2926 71.1797ZM24.315 64.6035L25.9898 70.0518L26.2838 71.959L25.0396 72.1846L22.3668 64.6035H24.315ZM37.8021 67.5635H35.2591L35.2454 66.2373H37.4261C37.7998 66.2373 38.1119 66.1849 38.3626 66.0801C38.6132 65.9753 38.8024 65.8226 38.93 65.6221C39.0621 65.4215 39.1282 65.1777 39.1282 64.8906C39.1282 64.5716 39.0667 64.3118 38.9437 64.1113C38.8252 63.9108 38.6383 63.765 38.3831 63.6738C38.1279 63.5781 37.8043 63.5303 37.4124 63.5303H35.8675V72H33.9876V62.0469H37.4124C37.9775 62.0469 38.4811 62.1016 38.9231 62.2109C39.3698 62.3158 39.748 62.4798 40.0579 62.7031C40.3678 62.9264 40.6025 63.2067 40.762 63.5439C40.9261 63.8812 41.0081 64.2822 41.0081 64.7471C41.0081 65.1572 40.9124 65.5355 40.721 65.8818C40.5341 66.2236 40.2448 66.5016 39.8528 66.7158C39.4655 66.93 38.9733 67.0531 38.3763 67.085L37.8021 67.5635ZM37.72 72H34.7054L35.4915 70.5234H37.72C38.0937 70.5234 38.4013 70.4619 38.6429 70.3389C38.889 70.2158 39.0713 70.0472 39.1897 69.833C39.3128 69.6143 39.3743 69.3636 39.3743 69.0811C39.3743 68.7712 39.3196 68.5023 39.2103 68.2744C39.1054 68.0465 38.9368 67.8711 38.7044 67.748C38.4765 67.625 38.1757 67.5635 37.8021 67.5635H35.847L35.8606 66.2373H38.3489L38.7796 66.75C39.3538 66.7546 39.8209 66.8685 40.181 67.0918C40.5455 67.3151 40.8144 67.6022 40.9876 67.9531C41.1608 68.304 41.2474 68.6823 41.2474 69.0879C41.2474 69.7259 41.1084 70.2614 40.8304 70.6943C40.5569 71.1273 40.1559 71.4531 39.6272 71.6719C39.1032 71.8906 38.4674 72 37.72 72ZM46.9518 70.4277V67.0166C46.9518 66.766 46.9085 66.5495 46.8219 66.3672C46.7353 66.1849 46.6032 66.0436 46.4254 65.9434C46.2477 65.8431 46.0221 65.793 45.7487 65.793C45.5072 65.793 45.2952 65.834 45.1129 65.916C44.9352 65.998 44.7985 66.1143 44.7028 66.2646C44.6071 66.4105 44.5592 66.5791 44.5592 66.7705H42.7477C42.7477 66.4652 42.8206 66.1758 42.9665 65.9023C43.1123 65.6243 43.3197 65.3783 43.5885 65.1641C43.862 64.9453 44.1878 64.7744 44.5661 64.6514C44.9489 64.5283 45.3773 64.4668 45.8512 64.4668C46.4118 64.4668 46.9108 64.5625 47.3483 64.7539C47.7904 64.9408 48.1367 65.2233 48.3874 65.6016C48.6426 65.9798 48.7702 66.4561 48.7702 67.0303V70.2568C48.7702 70.626 48.793 70.9427 48.8385 71.207C48.8887 71.4668 48.9616 71.6924 49.0573 71.8838V72H47.2184C47.1318 71.8132 47.0657 71.5762 47.0202 71.2891C46.9746 70.9974 46.9518 70.7103 46.9518 70.4277ZM47.2047 67.4951L47.2184 68.5684H46.0768C45.7943 68.5684 45.5459 68.598 45.3317 68.6572C45.1175 68.7119 44.9421 68.7939 44.8053 68.9033C44.6686 69.0081 44.5661 69.1357 44.4977 69.2861C44.4294 69.432 44.3952 69.5983 44.3952 69.7852C44.3952 69.9674 44.4362 70.1315 44.5182 70.2773C44.6048 70.4232 44.7279 70.5394 44.8874 70.626C45.0514 70.708 45.2428 70.749 45.4616 70.749C45.7806 70.749 46.0586 70.6852 46.2956 70.5576C46.5325 70.4255 46.7171 70.266 46.8493 70.0791C46.9814 69.8923 47.0521 69.7145 47.0612 69.5459L47.5807 70.3252C47.5169 70.512 47.4212 70.7103 47.2936 70.9199C47.166 71.1296 47.0019 71.3255 46.8014 71.5078C46.6009 71.6901 46.3594 71.8405 46.0768 71.959C45.7943 72.0775 45.4661 72.1367 45.0924 72.1367C44.6139 72.1367 44.1855 72.041 43.8073 71.8496C43.429 71.6582 43.1305 71.3962 42.9118 71.0635C42.693 70.7308 42.5837 70.3525 42.5837 69.9287C42.5837 69.5368 42.6566 69.1904 42.8024 68.8896C42.9482 68.5889 43.1647 68.3359 43.4518 68.1309C43.7389 67.9212 44.0944 67.764 44.5182 67.6592C44.9466 67.5498 45.4365 67.4951 45.9879 67.4951H47.2047ZM54.9737 70.4277V61.5H56.792V72H55.1514L54.9737 70.4277ZM50.2227 68.3906V68.2471C50.2227 67.682 50.2865 67.1693 50.4141 66.709C50.5462 66.2441 50.7376 65.8454 50.9883 65.5127C51.239 65.18 51.542 64.9225 51.8975 64.7402C52.2575 64.5579 52.6654 64.4668 53.1211 64.4668C53.5632 64.4668 53.9483 64.5557 54.2764 64.7334C54.6091 64.9111 54.8916 65.1641 55.124 65.4922C55.361 65.8203 55.5501 66.21 55.6914 66.6611C55.8327 67.1077 55.9352 67.5999 55.999 68.1377V68.5273C55.9352 69.0514 55.8327 69.5322 55.6914 69.9697C55.5501 70.4072 55.361 70.79 55.124 71.1182C54.8916 71.4417 54.6091 71.6924 54.2764 71.8701C53.9437 72.0479 53.5541 72.1367 53.1074 72.1367C52.6563 72.1367 52.2507 72.0433 51.8906 71.8564C51.5352 71.6696 51.2321 71.4076 50.9815 71.0703C50.7354 70.7331 50.5462 70.3366 50.4141 69.8809C50.2865 69.4251 50.2227 68.9284 50.2227 68.3906ZM52.0342 68.2471V68.3906C52.0342 68.7096 52.0615 69.0081 52.1162 69.2861C52.1709 69.5641 52.2598 69.8102 52.3828 70.0244C52.5059 70.234 52.6631 70.3981 52.8545 70.5166C53.0505 70.6351 53.2875 70.6943 53.5654 70.6943C53.9209 70.6943 54.2126 70.6169 54.4404 70.4619C54.6729 70.3024 54.8529 70.0859 54.9805 69.8125C55.1081 69.5345 55.1901 69.2223 55.2266 68.876V67.8027C55.2084 67.5293 55.1605 67.2764 55.083 67.0439C55.0101 66.8115 54.9053 66.611 54.7686 66.4424C54.6364 66.2738 54.4723 66.1416 54.2764 66.0459C54.0804 65.9502 53.848 65.9023 53.5791 65.9023C53.3011 65.9023 53.0641 65.9639 52.8682 66.0869C52.6722 66.2054 52.5127 66.3717 52.3897 66.5859C52.2666 66.8001 52.1755 67.0485 52.1162 67.3311C52.0615 67.6136 52.0342 67.9189 52.0342 68.2471Z" fill="#FBFBF7"/>
</g>
<defs>
<clipPath id="clip0_112_4119">
<rect x="4.3999" width="50" height="50" rx="25" fill="white"/>
</clipPath>
</defs>
</svg>
